<svg viewBox="0 0 16 16" fill="none" xmlns="http://www.w3.org/2000/svg">
<path d="M5.9273 2.70001H3.27452L0.393772 4.29582L0 6.74136L2.54916 5.35279H2.61133L1.28494 13.3111H4.16569L5.9273 2.70001Z" fill="#4F46E5"/>
<path d="M6.32367 13.3111H11.3184C13.6188 13.3111 15.2561 12.0469 15.5462 10.306C15.7949 8.81384 14.8623 7.81905 13.4945 7.7776L13.5152 7.67397C14.7794 7.42528 15.7535 6.51338 15.9607 5.35279C16.2301 3.73625 15.111 2.70001 12.6862 2.70001H8.08528L6.32367 13.3111ZM9.59819 11.0107L9.95051 8.77239H11.3391C12.2302 8.77239 12.6862 9.18689 12.5618 9.93298C12.4582 10.6376 11.8986 11.0107 10.9453 11.0107H9.59819ZM10.2614 6.99005L10.593 4.95902H11.8157C12.5204 4.95902 12.9971 5.31134 12.8934 5.97454C12.7898 6.61701 12.1888 6.99005 11.4427 6.99005H10.2614Z" fill="#4F46E5"/>
</svg>
