<?xml version="1.0" standalone="no"?>
<!DOCTYPE svg PUBLIC "-//W3C//DTD SVG 20010904//EN"
 "http://www.w3.org/TR/2001/REC-SVG-20010904/DTD/svg10.dtd">
<svg version="1.0" xmlns="http://www.w3.org/2000/svg"
 width="700.000000pt" height="700.000000pt" viewBox="0 0 700.000000 700.000000"
 preserveAspectRatio="xMidYMid meet">
<g transform="translate(0.000000,700.000000) scale(0.100000,-0.100000)"
fill="#000000" stroke="none">
<path d="M995 5578 c-521 -290 -521 -290 -565 -315 -19 -11 -78 -43 -130 -71
-122 -66 -128 -70 -134 -112 -3 -19 -8 -46 -10 -60 -3 -14 -7 -43 -11 -65 -3
-22 -12 -78 -20 -125 -18 -112 -25 -158 -31 -200 -2 -19 -11 -71 -19 -115 -7
-44 -16 -98 -20 -120 -3 -22 -14 -92 -25 -155 -10 -63 -21 -132 -24 -153 l-6
-38 42 24 c65 38 317 175 458 250 41 22 80 43 85 47 6 4 55 31 110 60 55 29
134 72 175 95 149 84 248 135 259 135 14 0 12 -15 -33 -280 -4 -19 -132 -791
-181 -1085 -5 -30 -14 -83 -21 -120 -1 -11 -13 -81 -25 -155 -11 -74 -23 -144
-25 -155 -3 -11 -7 -36 -10 -55 -3 -19 -35 -208 -70 -420 -36 -212 -67 -401
-70 -420 -3 -19 -12 -75 -21 -125 -8 -49 -17 -103 -20 -120 -2 -16 -23 -145
-47 -285 -33 -200 -40 -256 -30 -260 7 -3 291 -5 630 -4 l617 0 4 25 c2 13 16
103 33 199 16 96 31 189 33 205 3 17 12 71 20 120 9 50 18 104 21 120 7 48 26
158 30 181 2 12 7 45 11 75 4 30 8 56 10 59 2 3 6 26 10 50 3 25 10 70 16 100
5 30 11 69 14 85 3 17 8 46 11 65 3 19 8 46 10 60 2 14 6 39 9 55 2 17 7 47
11 69 3 21 8 48 10 60 2 11 11 64 19 116 9 52 18 106 20 120 3 14 10 54 15 90
6 36 13 79 16 95 3 17 7 41 9 55 5 35 14 87 25 145 5 28 12 70 15 95 4 25 13
83 21 130 8 47 16 96 19 110 4 32 18 113 20 120 1 3 5 32 10 65 5 33 10 62 10
65 1 3 5 28 10 55 4 28 9 59 11 70 3 11 7 36 10 55 5 36 11 66 18 110 4 19
176 1060 201 1210 2 14 7 40 10 58 3 17 7 44 9 60 3 15 12 68 21 119 8 51 18
110 21 133 l6 40 -584 -1 -583 -1 -430 -240z"/>
<path d="M3537 5813 c-2 -4 -7 -31 -11 -58 -3 -28 -12 -86 -20 -130 -8 -44
-17 -96 -20 -115 -3 -19 -8 -46 -10 -60 -3 -14 -14 -83 -26 -155 -12 -71 -23
-141 -26 -155 -2 -14 -7 -41 -10 -60 -3 -19 -7 -46 -10 -60 -2 -14 -8 -52 -14
-85 -5 -33 -12 -69 -14 -80 -2 -11 -7 -42 -10 -70 -4 -27 -9 -57 -11 -65 -2
-8 -6 -31 -9 -50 -9 -59 -56 -344 -61 -370 -3 -14 -8 -43 -10 -65 -3 -22 -8
-47 -10 -55 -2 -8 -7 -33 -10 -55 -2 -22 -7 -50 -9 -61 -6 -30 -16 -93 -22
-134 -2 -19 -12 -75 -20 -125 -9 -49 -18 -103 -21 -120 -2 -16 -15 -97 -29
-180 -14 -82 -27 -163 -30 -180 -3 -16 -28 -165 -55 -330 -50 -305 -55 -331
-63 -375 -3 -14 -8 -43 -11 -65 -3 -22 -10 -65 -15 -95 -13 -73 -16 -95 -51
-305 -34 -207 -38 -230 -53 -320 -21 -125 -76 -457 -80 -485 -3 -19 -7 -44
-10 -55 -15 -75 -17 -108 -8 -114 13 -8 2284 -6 2367 2 148 14 187 20 295 43
150 31 234 55 350 99 453 173 803 514 948 926 53 151 76 278 76 429 0 145 -2
168 -29 275 -66 260 -256 472 -510 568 -118 45 -245 71 -332 70 -28 0 -33 3
-33 23 0 19 8 25 43 34 84 21 233 73 302 104 179 84 374 234 480 371 11 14 25
31 32 39 6 7 26 37 44 67 18 30 38 61 44 69 26 32 93 210 115 300 33 141 36
332 7 465 -10 44 -29 109 -36 124 -67 134 -120 209 -200 284 -78 72 -128 106
-238 162 -143 74 -372 138 -568 160 -33 4 -69 10 -80 13 -32 9 -2313 14 -2318
5z m1791 -999 c35 -7 86 -24 115 -37 57 -26 147 -101 147 -122 0 -7 6 -18 14
-24 22 -18 46 -138 41 -203 -10 -122 -74 -251 -164 -328 -76 -66 -197 -122
-312 -145 -34 -7 -679 -16 -679 -10 0 2 9 59 21 127 11 68 22 134 24 148 2 14
15 93 28 175 14 83 28 166 31 185 7 46 18 111 21 130 2 8 6 39 10 68 l7 52
317 -1 c222 -1 335 -5 379 -15z m-268 -1658 c97 -9 151 -23 226 -56 143 -64
215 -178 216 -341 1 -225 -100 -398 -286 -489 -156 -77 -215 -84 -666 -85
l-345 0 2 30 c1 28 8 79 18 135 3 14 7 43 11 65 10 73 38 251 54 345 5 30 12
73 15 95 3 22 7 47 10 55 2 8 6 38 10 65 11 94 28 180 35 185 12 8 614 4 700
-4z"/>
</g>
</svg>
